<svg width="41" height="41" viewBox="0 0 41 41" fill="none" xmlns="http://www.w3.org/2000/svg">
<rect x="0.5" y="0.5" width="40" height="40" rx="11.5" fill="white" stroke="#E8ECF4"/>
<path d="M23.1578 13.3155C23.0659 13.2254 22.9567 13.1538 22.8365 13.105C22.7162 13.0562 22.5873 13.0311 22.4572 13.0311C22.327 13.0311 22.1981 13.0562 22.0779 13.105C21.9577 13.1538 21.8485 13.2254 21.7566 13.3155L15.1778 19.751C15.1044 19.8226 15.0462 19.9077 15.0065 20.0014C14.9667 20.0951 14.9463 20.1955 14.9463 20.2969C14.9463 20.3984 14.9667 20.4988 15.0065 20.5925C15.0462 20.6862 15.1044 20.7713 15.1778 20.8429L21.7566 27.2784C22.1445 27.6578 22.7699 27.6578 23.1578 27.2784C23.5457 26.8989 23.5457 26.2871 23.1578 25.9076L17.4261 20.2931L23.1657 14.6785C23.5457 14.3068 23.5457 13.6872 23.1578 13.3155Z" fill="#1E232C" stroke="#1E232C" stroke-width="0.2"/>
</svg>
