<svg width="17" height="17" viewBox="0 0 17 17" fill="none" xmlns="http://www.w3.org/2000/svg">
<g clip-path="url(#clip0_2460_2371)">
<path d="M5.92208 0.559283C4.22352 1.14853 2.75868 2.26694 1.74272 3.75024C0.726771 5.23354 0.213255 7.00354 0.277604 8.80025C0.341953 10.597 0.980775 12.3257 2.10024 13.7325C3.2197 15.1393 4.76079 16.1501 6.49716 16.6163C7.90487 16.9796 9.37973 16.9955 10.795 16.6628C12.077 16.3748 13.2623 15.7588 14.2348 14.8751C15.247 13.9273 15.9816 12.7216 16.3598 11.3875C16.7709 9.93673 16.844 8.41107 16.5736 6.92764H8.66864V10.2068H13.2467C13.1552 10.7298 12.9591 11.2289 12.6702 11.6744C12.3813 12.1199 12.0055 12.5025 11.5653 12.7993C11.0063 13.1691 10.3761 13.4179 9.7152 13.5298C9.0524 13.653 8.37254 13.653 7.70973 13.5298C7.03795 13.3909 6.40246 13.1136 5.84372 12.7156C4.9461 12.0802 4.27212 11.1775 3.91794 10.1364C3.55777 9.07574 3.55777 7.92587 3.91794 6.86522C4.17005 6.12176 4.58683 5.44484 5.13716 4.88499C5.76694 4.23254 6.56427 3.76617 7.44166 3.53704C8.31905 3.30791 9.2426 3.32488 10.111 3.58608C10.7894 3.79432 11.4097 4.15815 11.9225 4.64858C12.4387 4.13504 12.9541 3.62017 13.4685 3.10397C13.7341 2.82639 14.0236 2.5621 14.2853 2.27788C13.5024 1.54937 12.5835 0.982499 11.5812 0.609752C9.75598 -0.052996 7.75885 -0.0708068 5.92208 0.559283Z" fill="black"/>
<path d="M5.92206 0.559135C7.75868 -0.071383 9.75581 -0.0540411 11.5812 0.608276C12.5837 0.983556 13.5022 1.55315 14.2839 2.28437C14.0183 2.56859 13.7381 2.83421 13.4671 3.11046C12.9518 3.62489 12.437 4.13755 11.9225 4.64843C11.4097 4.15801 10.7893 3.79417 10.111 3.58593C9.24287 3.32381 8.31935 3.30587 7.44173 3.53406C6.56411 3.76225 5.76629 4.22776 5.13581 4.87953C4.58548 5.43938 4.16871 6.1163 3.91659 6.85976L1.16339 4.72812C2.14887 2.77386 3.85517 1.27901 5.92206 0.559135Z" fill="#E33629"/>
<path d="M0.433055 6.83981C0.581037 6.10641 0.826716 5.39617 1.16352 4.72809L3.91673 6.86504C3.55656 7.92569 3.55656 9.07556 3.91673 10.1362C2.99944 10.8445 2.0817 11.5564 1.16352 12.2718C0.320365 10.5935 0.0632159 8.68126 0.433055 6.83981Z" fill="#F8BD00"/>
<path d="M8.66868 6.92621H16.5737C16.8441 8.40963 16.7709 9.9353 16.3599 11.3861C15.9817 12.7201 15.247 13.9259 14.2349 14.8737C13.3463 14.1804 12.4538 13.4925 11.5653 12.7992C12.0058 12.502 12.3818 12.119 12.6707 11.6731C12.9597 11.2272 13.1556 10.7275 13.2467 10.204H8.66868C8.66735 9.1123 8.66868 8.01926 8.66868 6.92621Z" fill="#587DBD"/>
<path d="M1.16211 12.2719C2.08029 11.5636 2.99802 10.8517 3.91531 10.1363C4.2702 11.1778 4.94515 12.0805 5.84375 12.7155C6.40423 13.1116 7.0411 13.3867 7.71375 13.523C8.37656 13.6463 9.05641 13.6463 9.71922 13.523C10.3801 13.4111 11.0103 13.1623 11.5693 12.7925C12.4578 13.4858 13.3503 14.1738 14.2388 14.8671C13.2665 15.7512 12.0812 16.3677 10.799 16.6561C9.38375 16.9888 7.90888 16.9728 6.50117 16.6096C5.38781 16.3123 4.34785 15.7883 3.44648 15.0703C2.49244 14.3128 1.71322 13.3583 1.16211 12.2719Z" fill="#319F43"/>
</g>
<defs>
<clipPath id="clip0_2460_2371">
<rect width="17" height="17" fill="white"/>
</clipPath>
</defs>
</svg>
